<svg xmlns="http://www.w3.org/2000/svg" width="277.412" height="339.578" viewBox="0 0 277.412 339.578">
  <path id="LOGO" d="M-4.21-390.422,39.528-629.743H71.869c6.217-17.26,11.81-31.608,17.1-43.862a276.89,276.89,0,0,1,15.5-31.33c5.036-8.486,9.749-14.635,14.409-18.8a28.054,28.054,0,0,1,6.949-4.7A16.551,16.551,0,0,1,132.687-730a16.381,16.381,0,0,1,6.836,1.567,27.434,27.434,0,0,1,6.873,4.7c4.593,4.163,9.207,10.312,14.105,18.8a271.678,271.678,0,0,1,15,31.33c5.089,12.258,10.45,26.605,16.388,43.862h36.653L273.2-390.422ZM133.675-710.236c-4.426,0-9.447,4.156-14.924,12.352-4.381,6.557-9.062,15.7-13.913,27.175-8.257,19.533-14.224,39.33-14.284,39.528h83.367c-.049-.186-5.295-19.982-12.847-39.528-4.434-11.475-8.782-20.618-12.925-27.175C142.971-706.08,138.1-710.236,133.675-710.236Z" transform="translate(4.21 730)" fill="#ff2764"/>
</svg>